<svg xmlns="http://www.w3.org/2000/svg" width="40" height="40" viewBox="0 0 40 40">
  <g id="Group_8119" data-name="Group 8119" transform="translate(0 0.266)">
    <rect id="Rectangle_3073" data-name="Rectangle 3073" width="40" height="40" rx="20" transform="translate(0 -0.266)" fill="#fff"/>
    <g id="Layer_2" data-name="Layer 2" transform="translate(7.88 7.88)">
      <g id="invisible_box" data-name="invisible box">
        <rect id="Rectangle_3084" data-name="Rectangle 3084" width="24.24" height="24.24" fill="none"/>
      </g>
      <g id="icons_Q2" data-name="icons Q2" transform="translate(2.02 1.01)">
        <g id="Group_8120" data-name="Group 8120">
          <path id="Path_11763" data-name="Path 11763" d="M24.077,25.865V18.088a3.889,3.889,0,0,0-7.777,0v7.777a5.4,5.4,0,0,0,2.02,4.191.909.909,0,0,0,.455.2.707.707,0,0,0,.606-.3.757.757,0,0,0-.1-1.111,3.737,3.737,0,0,1-1.414-2.98V18.088a2.323,2.323,0,1,1,4.646,0v7.777a.758.758,0,0,1-.757.757.808.808,0,0,1-.808-.757V18.088a.757.757,0,1,0-1.515,0v7.928a2.323,2.323,0,0,0,2.323,2.171,2.373,2.373,0,0,0,2.323-2.171Z" transform="translate(-10.089 -8.039)" fill="#171a63"/>
          <path id="Path_11764" data-name="Path 11764" d="M17.169,8.1A6.969,6.969,0,0,0,10.2,15.069v7.777a8.585,8.585,0,0,0,.959,3.989.808.808,0,0,0,.707.4l.353-.1a.808.808,0,0,0,.3-1.061,7.12,7.12,0,0,1-.808-3.232V15.069a5.454,5.454,0,1,1,10.908,0v7.777a3.99,3.99,0,0,1-1.464,3.03.779.779,0,0,0,.5,1.363.808.808,0,0,0,.455-.151,5.353,5.353,0,0,0,2.02-4.242V15.069A6.969,6.969,0,0,0,17.169,8.1Z" transform="translate(-7.069 -5.019)" fill="#171a63"/>
          <path id="Path_11765" data-name="Path 11765" d="M14.1,2A10.1,10.1,0,0,0,4,12.05v9.342a.757.757,0,0,0,.757.757.808.808,0,0,0,.808-.757V12.049a8.535,8.535,0,0,1,17.069,0v7.777a6.515,6.515,0,0,1-.808,3.232.757.757,0,0,0,.353,1.061l.354.1a.707.707,0,0,0,.656-.4A8.333,8.333,0,0,0,24.2,20.18V12.049A10.1,10.1,0,0,0,14.1,2Z" transform="translate(-4 -2)" fill="#171a63"/>
        </g>
      </g>
    </g>
  </g>
</svg>
