<svg xmlns="http://www.w3.org/2000/svg" width="13.999" height="14" viewBox="0 0 13.999 14">
  <g id="icons_Q2" data-name="icons Q2" transform="translate(-10.001 -9.959)">
    <path id="Path_9376" data-name="Path 9376" d="M18.4,16.959l5.3-5.235a1.045,1.045,0,0,0,.1-1.346.952.952,0,0,0-1.5-.1L17,15.563l-5.3-5.285a.952.952,0,0,0-1.5.1,1.045,1.045,0,0,0,.1,1.346l5.3,5.235-5.3,5.235a1.045,1.045,0,0,0-.1,1.346.952.952,0,0,0,1.5.1L17,18.355l5.3,5.285a.952.952,0,0,0,1.5-.1,1.045,1.045,0,0,0-.1-1.346Z"/>
  </g>
</svg>
