<svg xmlns="http://www.w3.org/2000/svg" width="40" height="40" viewBox="0 0 40 40">
  <g id="Group_8113" data-name="Group 8113" transform="translate(0 -0.171)">
    <rect id="Rectangle_3074" data-name="Rectangle 3074" width="40" height="40" rx="20" transform="translate(0 0.171)" fill="#fff"/>
    <g id="Layer_2" data-name="Layer 2" transform="translate(10.4 7.734)">
      <g id="icons_Q2" data-name="icons Q2">
        <g id="Group_7850" data-name="Group 7850">
          <path id="Path_9364" data-name="Path 9364" d="M18.379,4.324H17.3V1.081A1.081,1.081,0,0,0,16.217,0H3.243A3.243,3.243,0,0,0,0,3.243v17.3a3.243,3.243,0,0,0,3.243,3.243H18.379A1.081,1.081,0,0,0,19.46,22.7V5.406A1.081,1.081,0,0,0,18.379,4.324ZM3.243,2.162H15.136V4.324H3.3a1.135,1.135,0,0,1-1.135-.919A1.081,1.081,0,0,1,3.243,2.162ZM17.3,21.622H3.243a1.081,1.081,0,0,1-1.081-1.081V6.487H17.3Z" fill="#171a63"/>
          <rect id="Rectangle_3013" data-name="Rectangle 3013" width="10.811" height="2.162" transform="translate(4.324 8.649)" fill="#171a63"/>
        </g>
      </g>
    </g>
  </g>
</svg>
