<svg xmlns="http://www.w3.org/2000/svg" width="40" height="40" viewBox="0 0 40 40">
  <g id="Group_8112" data-name="Group 8112" transform="translate(0 -0.171)">
    <rect id="Rectangle_3073" data-name="Rectangle 3073" width="40" height="40" rx="20" transform="translate(0 0.171)" fill="#fff"/>
    <path id="Union_30" data-name="Union 30" d="M3.12,20.8A3.032,3.032,0,0,1,0,17.68V3.12A3.032,3.032,0,0,1,3.12,0h15.6V2.08H3.133A.955.955,0,0,0,2.08,3.12.955.955,0,0,0,3.133,4.16H18.72V18.72a2.081,2.081,0,0,1-2.08,2.08ZM2.08,17.68a.951.951,0,0,0,1.04,1.04H16.64V6.24H2.08Zm5.5-.373a.848.848,0,0,1-.36-.915c.04-.2,1.293-3.735,1.372-4.04a.749.749,0,0,0,.021-.521.267.267,0,0,0-.259-.134c-.1.009-1.015.128-1.015.128a.305.305,0,1,1-.04-.61c.043,0,2.424-.311,2.659-.336.863-.137.945.433.756,1.012-.128.4-1.3,3.861-1.363,4.056l-.162.479c-.021.091-.085.308.024.341.158.061.534-.228.634-.3a5.069,5.069,0,0,0,1.071-1.15.3.3,0,0,1,.512.305,4.971,4.971,0,0,1-1.97,1.753,2.608,2.608,0,0,1-.942.189c-.031,0-.061,0-.092,0A1.524,1.524,0,0,1,7.581,17.307Zm1.3-8.251a1.22,1.22,0,1,1,1.219,1.22A1.22,1.22,0,0,1,8.88,9.056Z" transform="translate(10.4 9.334)" fill="#171a63"/>
  </g>
</svg>
