<svg xmlns="http://www.w3.org/2000/svg" width="40" height="40" viewBox="0 0 40 40">
  <g id="Group_8116" data-name="Group 8116" transform="translate(0 0.483)">
    <rect id="Rectangle_3078" data-name="Rectangle 3078" width="40" height="40" rx="20" transform="translate(0 -0.483)" fill="#fff"/>
    <g id="Layer_2" data-name="Layer 2" transform="translate(8 7.796)">
      <g id="invisible_box" data-name="invisible box" transform="translate(0 0)">
        <rect id="Rectangle_3057" data-name="Rectangle 3057" width="24.242" height="24.242" fill="none"/>
      </g>
      <g id="icons_Q2" data-name="icons Q2" transform="translate(0.833 0.69)">
        <g id="Group_8071" data-name="Group 8071">
          <path id="Path_11735" data-name="Path 11735" d="M21.293,15.738l2.778-.758a11.616,11.616,0,0,0,0-3.737l-2.778-.758a.909.909,0,0,1-.556-1.313l1.414-2.525a10.4,10.4,0,0,0-2.576-2.576L17.051,5.485l-.4.1a.909.909,0,0,1-.909-.657L14.98,2.152a11.616,11.616,0,0,0-3.737,0L10.485,4.93a.909.909,0,0,1-.909.657l-.4-.1L6.647,4.071A10.4,10.4,0,0,0,4.071,6.647L5.485,9.172a.909.909,0,0,1-.556,1.313l-2.778.758a11.616,11.616,0,0,0,0,3.737l2.778.758a.909.909,0,0,1,.556,1.313L4.071,19.576a10.4,10.4,0,0,0,2.576,2.576l2.525-1.414.4-.1a.909.909,0,0,1,.909.657l.758,2.778a11.616,11.616,0,0,0,3.737,0l.758-2.778a.909.909,0,0,1,.909-.657l.4.1,2.525,1.414a10.4,10.4,0,0,0,2.576-2.576l-1.414-2.525a.909.909,0,0,1,.556-1.313Zm-.606-1.97h-.1a3.081,3.081,0,0,0-1.717,1.667,2.879,2.879,0,0,0,.051,2.424h.051v.1l.758,1.263a1.515,1.515,0,0,1-.4.4l-1.263-.758h-.152a2.727,2.727,0,0,0-1.263-.3,3.03,3.03,0,0,0-2.828,1.97v.152h0L13.364,22.2h-.505l-.4-1.465h0v-.1a3.03,3.03,0,0,0-2.879-2.02,2.727,2.727,0,0,0-1.263.3H8.162L6.9,19.677a1.515,1.515,0,0,1-.4-.4l.758-1.263v-.1H7.3a2.879,2.879,0,0,0,.051-2.424,3.081,3.081,0,0,0-1.717-1.667H5.485L4.02,13.364v-.505l1.465-.4h.152a3.081,3.081,0,0,0,1.717-1.667A2.879,2.879,0,0,0,7.3,8.364H7.253v-.1L6.5,7l.4-.4,1.263.758h.152a2.727,2.727,0,0,0,1.263.3A3.03,3.03,0,0,0,12.4,5.687V5.536h0l.455-1.515h.505l.4,1.465h0v.1a3.03,3.03,0,0,0,2.879,2.02,2.727,2.727,0,0,0,1.263-.3h.152l1.263-.758a1.515,1.515,0,0,1,.4.4L18.97,8.212v.1h-.051a2.879,2.879,0,0,0-.051,2.424A3.081,3.081,0,0,0,20.586,12.4h.152l1.465.4v.505l-1.465.4Z" transform="translate(-2 -2)" fill="#171a63"/>
          <path id="Path_11736" data-name="Path 11736" d="M19.545,15a4.545,4.545,0,1,0,4.545,4.545A4.545,4.545,0,0,0,19.545,15Zm0,7.071a2.525,2.525,0,1,1,2.525-2.525A2.525,2.525,0,0,1,19.545,22.071Z" transform="translate(-8.435 -8.435)" fill="#171a63"/>
        </g>
      </g>
    </g>
  </g>
</svg>
