<svg xmlns="http://www.w3.org/2000/svg" xmlns:xlink="http://www.w3.org/1999/xlink" width="47.823" height="48.134" viewBox="0 0 47.823 48.134">
  <defs>
    <linearGradient id="linear-gradient" x1="0.084" y1="0.223" x2="0.917" y2="0.776" gradientUnits="objectBoundingBox">
      <stop offset="0" stop-color="#00a6d6"/>
      <stop offset="1" stop-color="#ba1fb5"/>
    </linearGradient>
  </defs>
  <path id="Path_46" data-name="Path 46" d="M3055.641,4597.135a22.068,22.068,0,0,1-6.021-.812,19.912,19.912,0,0,1-5.481-2.436,22.178,22.178,0,0,1-4.566-3.754h0a25.333,25.333,0,0,1-3.449-4.871,24.8,24.8,0,0,1-2.166-5.784l-.1-.375a27.627,27.627,0,0,1,0-11.77c.067-.238.1-.442.17-.676a23.861,23.861,0,0,1,2.367-5.854,24.2,24.2,0,0,1,3.755-4.87,23.932,23.932,0,0,1,4.871-3.754,22.918,22.918,0,0,1,5.785-2.4,26.605,26.605,0,0,1,12.753,0,23.23,23.23,0,0,1,5.75,2.4,22.047,22.047,0,0,1,4.838,3.754,22.885,22.885,0,0,1,3.72,4.87,23.917,23.917,0,0,1,2.4,5.854,26.905,26.905,0,0,1,.778,6.426V4590.1a6.525,6.525,0,0,1-1.962,4.836,5.932,5.932,0,0,1-2.232,1.454,6.705,6.705,0,0,1-2.6.509,6.585,6.585,0,0,1-4.838-1.963,6.152,6.152,0,0,1-1.218-1.724c-.339.237-.677.475-1.015.675a19.891,19.891,0,0,1-5.479,2.436A22.312,22.312,0,0,1,3055.641,4597.135Zm1.556-12.683a11.449,11.449,0,0,0,2.91-.373,9.692,9.692,0,0,0,2.5-1.082,10.456,10.456,0,0,0,2.131-1.725,11.367,11.367,0,0,0,1.623-2.267,10.412,10.412,0,0,0,1.05-2.74h0a13.443,13.443,0,0,0,.371-3.18,12.245,12.245,0,0,0-1.42-5.988,12.4,12.4,0,0,0-1.623-2.266,10.359,10.359,0,0,0-2.131-1.725,9.626,9.626,0,0,0-2.5-1.082,11.516,11.516,0,0,0-5.819,0,9.619,9.619,0,0,0-2.5,1.082,12.025,12.025,0,0,0-2.164,1.725,11.377,11.377,0,0,0-1.658,2.3l-.135.2a10.335,10.335,0,0,0-.948,2.535,13.777,13.777,0,0,0-.373,3.215,12.949,12.949,0,0,0,.373,3.145,10.661,10.661,0,0,0,1.049,2.741h.033a10.554,10.554,0,0,0,1.658,2.3,11.055,11.055,0,0,0,2.164,1.725l.169.1a10.018,10.018,0,0,0,2.335.981A11.435,11.435,0,0,0,3057.2,4584.452Z" transform="translate(-3033.222 -4549.001)" fill-rule="evenodd" fill="url(#linear-gradient)"/>
</svg>
