<svg id="Layer_2" data-name="Layer 2" xmlns="http://www.w3.org/2000/svg" width="24" height="24" viewBox="0 0 24 24">
  <g id="invisible_box" data-name="invisible box">
    <rect id="Rectangle_2736" data-name="Rectangle 2736" width="24" height="24" fill="none"/>
  </g>
  <g id="icons_Q2" data-name="icons Q2" transform="translate(1.326 0.986)">
    <path id="Path_7708" data-name="Path 7708" d="M3.971,12.844a8.872,8.872,0,1,1,8.872,8.872,8.872,8.872,0,0,1-8.872-8.872M2,12.844A10.795,10.795,0,1,0,5.161,5.161,10.844,10.844,0,0,0,2,12.844Z" transform="translate(-2 -2)" fill="#fff"/>
    <path id="Path_7709" data-name="Path 7709" d="M22.528,18.93l-3.253,3.253a.937.937,0,0,0,.1,1.479,1.035,1.035,0,0,0,1.331-.1L24.6,19.62a.937.937,0,0,0,0-1.38L20.7,14.3a1.035,1.035,0,0,0-1.331-.1.937.937,0,0,0-.1,1.479Z" transform="translate(-10.6 -8.086)" fill="#fff"/>
  </g>
</svg>
